<?xml version="1.0" encoding="UTF-8"?>
<!DOCTYPE svg PUBLIC "-//W3C//DTD SVG 1.1//EN" "http://www.w3.org/Graphics/SVG/1.1/DTD/svg11.dtd">
<!-- Creator: CorelDRAW 2018 (64-Bit) -->
<svg xmlns="http://www.w3.org/2000/svg" xml:space="preserve" width="54px" height="53px" version="1.1" style="shape-rendering:geometricPrecision; text-rendering:geometricPrecision; image-rendering:optimizeQuality; fill-rule:evenodd; clip-rule:evenodd"
viewBox="0 0 54 53"
 xmlns:xlink="http://www.w3.org/1999/xlink">
 <defs>
  <style type="text/css">
   <![CDATA[
    .fil0 {fill:#2B2A29}
   ]]>
  </style>
 </defs>
 <g id="Слой_x0020_1">
  <metadata id="CorelCorpID_0Corel-Layer"/>
  <g id="cart">
   <path class="fil0" d="M53.52 7.07c-0.4,-0.48 -0.99,-0.73 -1.61,-0.73l-42.19 0 0 -4.3c0,-1.14 -0.9,-2.04 -2.05,-2.04l-5.58 0c-1.15,0 -2.09,0.94 -2.09,2.09 0,1.14 0.94,2.09 2.09,2.09l3.45 0 0 40.88c0,0.01 0.02,0.02 0.02,0.03 0,0.09 0,0.18 0,0.27 0,4.21 3.46,7.64 7.71,7.64 3.51,0 6.49,-2.33 7.41,-5.57l10.82 0c0.91,3.24 3.88,5.57 7.41,5.57 4.24,0 7.69,-3.43 7.69,-7.64 0,-4.22 -3.45,-7.64 -7.69,-7.64 -3.53,0 -6.5,2.46 -7.41,5.57l-10.82 0c-0.92,-3.11 -3.91,-5.57 -7.43,-5.57 -1.27,0 -2.39,0.3 -3.53,0.84l0 -4.12c0.31,0.05 0.66,0.14 0.98,0.14l33.55 0c2.68,0 4.96,-1.88 5.68,-4.65 0.01,-0.03 0.02,-0.09 0.03,-0.14l4 -21.01c0.12,-0.61 -0.04,-1.23 -0.44,-1.71l0 0zm-14.61 34.8c1.93,0 3.51,1.57 3.51,3.49 0,1.92 -1.58,3.49 -3.51,3.49 -1.94,0 -3.52,-1.57 -3.52,-3.49 0,-1.92 1.58,-3.49 3.52,-3.49zm-25.64 0c1.94,0 3.51,1.57 3.51,3.49 0,1.92 -1.57,3.49 -3.51,3.49 -1.94,0 -3.52,-1.57 -3.52,-3.49 0,-1.92 1.58,-3.49 3.52,-3.49zm32.59 -12.9c-0.11,0.4 -0.52,1.44 -1.61,1.44l-33.55 0c-0.53,0 -0.98,-0.47 -0.98,-1.02l0 -18.9 39.67 0 -3.53 18.48 0 0z"/>
  </g>
  <g id="Layer_1">
  </g>
 </g>
</svg>
