<?xml version="1.0" encoding="UTF-8"?>
<!DOCTYPE svg PUBLIC "-//W3C//DTD SVG 1.1//EN" "http://www.w3.org/Graphics/SVG/1.1/DTD/svg11.dtd">
<!-- Creator: CorelDRAW 2018 (64-Bit) -->
<svg xmlns="http://www.w3.org/2000/svg" xml:space="preserve" width="72px" height="71px" version="1.1" style="shape-rendering:geometricPrecision; text-rendering:geometricPrecision; image-rendering:optimizeQuality; fill-rule:evenodd; clip-rule:evenodd"
viewBox="0 0 72 71"
 xmlns:xlink="http://www.w3.org/1999/xlink">
 <defs>
  <style type="text/css">
   <![CDATA[
    .fil0 {fill:black}
   ]]>
  </style>
 </defs>
 <g id="Слой_x0020_1">
  <metadata id="CorelCorpID_0Corel-Layer"/>
  <g id="cart">
   <path class="fil0" d="M71.36 9.47c-0.53,-0.64 -1.32,-0.97 -2.15,-0.97l-56.25 0 0 -5.77c0,-1.53 -1.2,-2.73 -2.74,-2.73l-7.43 0c-1.54,0 -2.79,1.26 -2.79,2.8 0,1.53 1.25,2.8 2.79,2.8l4.6 0 0 54.76c0,0.02 0.02,0.03 0.02,0.05 0,0.12 0,0.24 0,0.35 0,5.65 4.61,10.24 10.28,10.24 4.69,0 8.66,-3.12 9.88,-7.46l14.43 0c1.22,4.34 5.18,7.46 9.88,7.46 5.66,0 10.26,-4.59 10.26,-10.24 0,-5.64 -4.6,-10.23 -10.26,-10.23 -4.7,0 -8.66,3.29 -9.88,7.46l-14.43 0c-1.22,-4.17 -5.21,-7.46 -9.9,-7.46 -1.69,0 -3.19,0.41 -4.71,1.13l0 -5.53c0.42,0.07 0.88,0.2 1.31,0.2l44.73 0c3.58,0 6.62,-2.53 7.57,-6.23 0.02,-0.05 0.03,-0.13 0.04,-0.19l5.34 -28.15c0.16,-0.82 -0.06,-1.65 -0.59,-2.29zm-19.48 46.62c2.58,0 4.68,2.1 4.68,4.67 0,2.58 -2.1,4.68 -4.68,4.68 -2.59,0 -4.69,-2.1 -4.69,-4.68 0,-2.57 2.1,-4.67 4.69,-4.67zm-34.19 0c2.59,0 4.69,2.1 4.69,4.67 0,2.58 -2.1,4.68 -4.69,4.68 -2.58,0 -4.69,-2.1 -4.69,-4.68 0,-2.57 2.11,-4.67 4.69,-4.67zm43.46 -17.28c-0.15,0.54 -0.69,1.93 -2.15,1.93l-44.73 0c-0.71,0 -1.31,-0.63 -1.31,-1.37l0 -25.31 52.89 0 -4.7 24.75z"/>
  </g>
  <g id="Layer_1">
  </g>
 </g>
</svg>
