<?xml version="1.0" encoding="UTF-8"?>
<!DOCTYPE svg PUBLIC "-//W3C//DTD SVG 1.1//EN" "http://www.w3.org/Graphics/SVG/1.1/DTD/svg11.dtd">
<!-- Creator: CorelDRAW 2018 (64-Bit) -->
<svg xmlns="http://www.w3.org/2000/svg" xml:space="preserve" width="30px" height="35px" version="1.1" style="shape-rendering:geometricPrecision; text-rendering:geometricPrecision; image-rendering:optimizeQuality; fill-rule:evenodd; clip-rule:evenodd"
viewBox="0 0 30 35"
 xmlns:xlink="http://www.w3.org/1999/xlink">
 <defs>
  <style type="text/css">
   <![CDATA[
    .fil0 {fill:#2B2A29}
   ]]>
  </style>
 </defs>
 <g id="Слой_x0020_1">
  <metadata id="CorelCorpID_0Corel-Layer"/>
  <g id="XMLID_214_">
   <path id="XMLID_25_" class="fil0" d="M10.25 22.61l-0.8 0 0 3.59 0.8 0c0.38,0 0.7,-0.13 0.93,-0.4 0.23,-0.27 0.35,-0.61 0.35,-1.01l0 -0.76c0,-0.41 -0.12,-0.75 -0.35,-1.02 -0.23,-0.26 -0.55,-0.4 -0.93,-0.4l0 0z"/>
   <path id="XMLID_20_" class="fil0" d="M22.62 19.6l-22.62 0 0 9.37 19.22 0 3.4 -9.37zm-15.42 4.99c-0.31,0.28 -0.73,0.41 -1.26,0.41l-1.05 0 0 1.85 -0.81 0 0 -4.9 1.86 0c0.53,0 0.96,0.14 1.26,0.42 0.31,0.28 0.46,0.64 0.46,1.1 0,0.48 -0.15,0.84 -0.46,1.12zm5.14 0.2c0,0.6 -0.2,1.1 -0.58,1.49 -0.38,0.38 -0.9,0.58 -1.51,0.58l-1.61 0 0 -4.9 1.61 0c0.61,0 1.12,0.19 1.51,0.58 0.39,0.38 0.58,0.89 0.58,1.5l0 0.75 0 0zm4.21 -2.18l-2.3 0 0 1.5 1.95 0 0 0.65 -1.95 0 0 2.1 -0.81 0 0 -4.9 3.11 0 0 0.65z"/>
   <path id="XMLID_19_" class="fil0" d="M5.94 22.61l-1.05 0 0 1.73 1.05 0c0.3,0 0.53,-0.09 0.69,-0.24 0.15,-0.16 0.23,-0.38 0.23,-0.62 0,-0.26 -0.08,-0.45 -0.23,-0.63 -0.16,-0.15 -0.39,-0.24 -0.69,-0.24l0 0z"/>
   <path id="XMLID_18_" class="fil0" d="M21.74 0l0 0 -17.07 0c-0.51,0 -0.93,0.42 -0.93,0.93l0 17.98 1.84 0 0 -17.05 16.16 0 0 6.45 6.41 0 0 24.84 -22.57 0 0 -3.5 -1.84 0 0 4.42c0,0.51 0.42,0.93 0.93,0.93l24.4 0c0.51,0 0.93,-0.42 0.93,-0.93l0 -25.76 -8.26 -8.31 0 0z"/>
   <rect id="XMLID_17_" class="fil0" x="8.06" y="11.58" width="17.63" height="1.38"/>
   <rect id="XMLID_16_" class="fil0" x="8.06" y="14.25" width="14.84" height="1.38"/>
  </g>
 </g>
 <g id="Слой_x0020_1_0">
  <metadata id="CorelCorpID_1Corel-Layer"/>
  <g id="Layer_1">
  </g>
 </g>
</svg>
