<?xml version="1.0" encoding="UTF-8"?>
<!DOCTYPE svg PUBLIC "-//W3C//DTD SVG 1.1//EN" "http://www.w3.org/Graphics/SVG/1.1/DTD/svg11.dtd">
<!-- Creator: CorelDRAW 2018 (64-Bit) -->
<svg xmlns="http://www.w3.org/2000/svg" xml:space="preserve" width="35px" height="29px" version="1.1" style="shape-rendering:geometricPrecision; text-rendering:geometricPrecision; image-rendering:optimizeQuality; fill-rule:evenodd; clip-rule:evenodd"
viewBox="0 0 35 29"
 xmlns:xlink="http://www.w3.org/1999/xlink"
 enable-background="new 0 0 500 500">
 <defs>
  <style type="text/css">
   <![CDATA[
    .fil0 {fill:#333333}
   ]]>
  </style>
 </defs>
 <g id="Слой_x0020_1">
  <metadata id="CorelCorpID_0Corel-Layer"/>
  <path class="fil0" d="M2.92 24.08c-1.61,0 -2.92,-1.32 -2.92,-2.95l0 -18.42c0,-1.63 1.31,-2.95 2.92,-2.95l16.04 0c1.61,0 2.92,1.32 2.92,2.95l0 2.95 4.43 0c0.97,0 1.85,0.38 2.47,1.01l3.69 3.75c0.66,0.66 1.08,1.59 1.08,2.61l0 7.4c0.83,0.17 1.45,0.91 1.45,1.81 0,1.01 -0.82,1.84 -1.82,1.84l-2.56 0c-0.19,2.88 -2.56,5.16 -5.47,5.16 -2.89,0 -5.26,-2.28 -5.45,-5.16l-5.12 0c-0.19,2.88 -2.57,5.16 -5.46,5.16 -2.9,0 -5.28,-2.28 -5.47,-5.16l-0.73 0 0 0zm20.41 -0.37c0,1.01 0.82,1.84 1.83,1.84 1.01,0 1.82,-0.82 1.82,-1.84 0,-1.01 -0.81,-1.84 -1.82,-1.84 -1.01,0 -1.83,0.83 -1.83,1.84zm-16.04 0c0,1.01 0.82,1.84 1.83,1.84 1,0 1.82,-0.82 1.82,-1.84 0,-1.01 -0.82,-1.84 -1.82,-1.84 -1.01,0 -1.83,0.83 -1.83,1.84zm22.61 -8.47l0 -1.86c0,-0.74 -0.3,-1.09 -0.84,-1.64l-1.57 -1.59c-0.49,-0.5 -0.87,-0.81 -1.59,-0.81l-4.02 0 0 5.9 8.02 0 0 0z"/>
 </g>
</svg>
