<?xml version="1.0" encoding="UTF-8"?>
<!DOCTYPE svg PUBLIC "-//W3C//DTD SVG 1.1//EN" "http://www.w3.org/Graphics/SVG/1.1/DTD/svg11.dtd">
<!-- Creator: CorelDRAW 2018 (64-Bit) -->
<svg xmlns="http://www.w3.org/2000/svg" xml:space="preserve" width="38px" height="32px" version="1.1" style="shape-rendering:geometricPrecision; text-rendering:geometricPrecision; image-rendering:optimizeQuality; fill-rule:evenodd; clip-rule:evenodd"
viewBox="0 0 38 32"
 xmlns:xlink="http://www.w3.org/1999/xlink"
 enable-background="new 0 0 500 500">
 <defs>
  <style type="text/css">
   <![CDATA[
    .fil0 {fill:#333333}
   ]]>
  </style>
 </defs>
 <g id="Слой_x0020_1">
  <metadata id="CorelCorpID_0Corel-Layer"/>
  <path class="fil0" d="M3.17 26.4c-1.75,0 -3.17,-1.43 -3.17,-3.2l0 -20c0,-1.77 1.42,-3.2 3.17,-3.2l17.41 0c1.75,0 3.17,1.43 3.17,3.2l0 3.2 4.81 0c1.06,0 2.01,0.42 2.69,1.1l4 4.07c0.72,0.72 1.17,1.73 1.17,2.83l0 8.04c0.9,0.18 1.58,0.99 1.58,1.96 0,1.1 -0.89,2 -1.98,2l-2.78 0c-0.2,3.13 -2.78,5.6 -5.93,5.6 -3.14,0 -5.72,-2.47 -5.92,-5.6l-5.56 0c-0.21,3.13 -2.79,5.6 -5.93,5.6 -3.15,0 -5.73,-2.47 -5.93,-5.6l-0.8 0zm22.16 -0.4c0,1.1 0.89,2 1.98,2 1.1,0 1.98,-0.9 1.98,-2 0,-1.1 -0.88,-2 -1.98,-2 -1.09,0 -1.98,0.9 -1.98,2zm-17.41 0c0,1.1 0.88,2 1.98,2 1.09,0 1.98,-0.9 1.98,-2 0,-1.1 -0.89,-2 -1.98,-2 -1.1,0 -1.98,0.9 -1.98,2zm24.54 -9.2l0 -2.02c0,-0.8 -0.32,-1.18 -0.91,-1.78l-1.7 -1.72c-0.54,-0.54 -0.95,-0.88 -1.73,-0.88l-4.37 0 0 6.4 8.71 0z"/>
 </g>
</svg>
