<?xml version="1.0" encoding="UTF-8"?>
<!DOCTYPE svg PUBLIC "-//W3C//DTD SVG 1.1//EN" "http://www.w3.org/Graphics/SVG/1.1/DTD/svg11.dtd">
<!-- Creator: CorelDRAW 2018 (64-Bit) -->
<svg xmlns="http://www.w3.org/2000/svg" xml:space="preserve" width="130px" height="83px" version="1.1" style="shape-rendering:geometricPrecision; text-rendering:geometricPrecision; image-rendering:optimizeQuality; fill-rule:evenodd; clip-rule:evenodd"
viewBox="0 0 130 83"
 xmlns:xlink="http://www.w3.org/1999/xlink">
 <defs>
  <style type="text/css">
   <![CDATA[
    .fil0 {fill:#2B2A29}
   ]]>
  </style>
 </defs>
 <g id="Слой_x0020_1">
  <metadata id="CorelCorpID_0Corel-Layer"/>
  <g id="_2245643144448">
   <path class="fil0" d="M129.91 66.76l-4.88 0 0 15.75c-1.53,0.16 -3.07,0.32 -4.6,0.46 -1.61,0.09 -2.99,-0.05 -4.14,-0.42 -1.17,-0.37 -2.1,-0.98 -2.8,-1.81 -1.25,-1.48 -1.88,-3.85 -1.88,-7.11l0 -16.27c4.47,-2.2 8.95,-4.4 13.42,-6.6l0 6.57 4.97 0 0 9.43 -0.09 0 0 0zm-94.32 13.76l7.94 0 6.21 -21.28 -8.7 0 2.43 10.92c-0.41,1.35 -0.82,2.71 -1.24,4.05l-3.34 -14.97 -9.74 0 6.44 21.28 0 0zm-1.65 1.83l-7.62 -24.99 26.17 0c-2.44,8.35 -4.86,16.71 -7.34,25.04l-11.2 0 -0.01 -0.05 0 0zm-8.5 -12.45c0,2.01 -0.28,3.82 -0.82,5.39 -0.55,1.59 -1.37,2.96 -2.46,4.1 -1.13,1.2 -2.47,2.09 -4.04,2.69 -1.57,0.59 -3.37,0.89 -5.38,0.89 -2.02,0 -3.8,-0.3 -5.37,-0.88 -1.57,-0.59 -2.91,-1.47 -4.03,-2.65 -1.11,-1.18 -1.95,-2.56 -2.5,-4.15 -0.56,-1.6 -0.84,-3.39 -0.84,-5.39 0,-2.03 0.28,-3.85 0.83,-5.45 0.55,-1.6 1.39,-2.99 2.49,-4.15 1.11,-1.17 2.45,-2.05 4.02,-2.64 1.57,-0.58 3.37,-0.87 5.4,-0.87 2.01,0 3.8,0.29 5.36,0.88 1.57,0.58 2.9,1.47 4.02,2.65 1.1,1.18 1.93,2.56 2.48,4.16 0.56,1.59 0.84,3.4 0.84,5.42l0 0zm-2.31 0.32l0 -0.45c0,-1.7 -0.21,-3.22 -0.65,-4.56 -0.43,-1.33 -1.08,-2.49 -1.94,-3.47 -0.93,-1.03 -2.04,-1.79 -3.34,-2.31 -1.3,-0.5 -2.79,-0.76 -4.46,-0.76 -1.71,0 -3.21,0.26 -4.51,0.76 -1.29,0.51 -2.39,1.27 -3.28,2.29 -0.9,1.01 -1.58,2.2 -2.02,3.56 -0.45,1.37 -0.68,2.91 -0.68,4.62 0,1.69 0.23,3.19 0.67,4.52 0.44,1.33 1.1,2.48 1.98,3.46 0.92,1.03 2.04,1.79 3.34,2.3 1.31,0.51 2.81,0.77 4.5,0.77 1.44,0 2.74,-0.19 3.91,-0.58 1.16,-0.38 2.18,-0.96 3.08,-1.73 0.9,-0.77 1.61,-1.7 2.16,-2.79 0.53,-1.07 0.89,-2.29 1.1,-3.66l-9.22 0 0 2.51c0,0.43 -0.08,0.75 -0.25,0.97 -0.17,0.22 -0.44,0.33 -0.78,0.33 -0.78,0 -1.17,-0.43 -1.17,-1.3l0 -4.48 11.56 0 0 0zm-9.44 -3.38l-2.12 0 0 -2.82c0,-0.44 0.09,-0.78 0.29,-1 0.2,-0.23 0.49,-0.35 0.88,-0.35 0.34,0 0.61,0.12 0.79,0.36 0.16,0.22 0.24,0.55 0.24,0.99l0 2.83 -0.08 0 0 -0.01zm114.06 -1.92l0 -5.8 -4.89 0 0 -5.07 -9.03 4.45 0 15.22c0,2.58 0.4,4.39 1.2,5.42 0.47,0.6 1.14,1.05 2,1.36 0.87,0.3 1.94,0.46 3.21,0.46l1.4 0 1.22 -0.22 0 -15.82 4.89 0 0 0zm-20.92 17.42l-24.04 0 0 -25.01 13.91 0c1.83,0 3.39,0.15 4.69,0.48 1.3,0.32 2.33,0.82 3.1,1.47l0 0c0.81,0.72 1.42,1.7 1.82,2.94 0.4,1.25 0.61,2.76 0.61,4.54l0 15.58 -0.09 0 0 0zm-2.22 -1.88l0 -13.88c0,-1.39 -0.13,-2.56 -0.41,-3.52 -0.27,-0.95 -0.69,-1.7 -1.24,-2.23 -0.54,-0.54 -1.29,-0.95 -2.26,-1.21 -0.97,-0.27 -2.15,-0.41 -3.54,-0.41l-12.15 0 0 21.25 8.67 0 0 -15.54 0.45 0c0.59,0 1.03,0.11 1.34,0.33 0.31,0.23 0.47,0.56 0.47,1.01l0 14.2 8.67 0 0 0zm-25.53 -10.56c0,2.01 -0.27,3.82 -0.82,5.39 -0.54,1.59 -1.36,2.96 -2.45,4.1 -1.13,1.2 -2.47,2.09 -4.05,2.69 -1.57,0.59 -3.36,0.89 -5.38,0.89 -2.01,0 -3.8,-0.3 -5.36,-0.88 -1.57,-0.59 -2.91,-1.47 -4.03,-2.65 -1.11,-1.18 -1.95,-2.56 -2.51,-4.15 -0.56,-1.6 -0.83,-3.39 -0.83,-5.39 0,-2.03 0.27,-3.85 0.82,-5.45 0.56,-1.6 1.39,-2.99 2.5,-4.15 1.11,-1.17 2.45,-2.05 4.02,-2.64 1.57,-0.58 3.36,-0.87 5.39,-0.87 2.02,0 3.81,0.29 5.37,0.88 1.56,0.58 2.9,1.47 4.01,2.65 1.11,1.18 1.94,2.56 2.5,4.16 0.54,1.59 0.82,3.4 0.82,5.42l0 0zm-2.3 0.32l0 -0.45c0,-1.7 -0.21,-3.22 -0.65,-4.56 -0.44,-1.33 -1.08,-2.49 -1.95,-3.47 -0.92,-1.03 -2.03,-1.79 -3.33,-2.31 -1.3,-0.5 -2.79,-0.76 -4.47,-0.76 -1.7,0 -3.2,0.26 -4.51,0.76 -1.29,0.51 -2.38,1.27 -3.28,2.29 -0.89,1.01 -1.56,2.2 -2.01,3.56 -0.45,1.37 -0.68,2.91 -0.68,4.62 0,3.36 0.89,6.02 2.65,7.98 0.92,1.03 2.03,1.79 3.34,2.3 1.31,0.51 2.8,0.77 4.49,0.77 2.87,0 5.21,-0.77 7,-2.31 0.89,-0.77 1.61,-1.7 2.16,-2.79 0.53,-1.07 0.89,-2.29 1.09,-3.66l-9.2 0 0 2.51c0,0.87 -0.35,1.3 -1.05,1.3 -0.78,0 -1.17,-0.43 -1.17,-1.3l0 -4.48 11.57 0 0 0zm-9.44 -3.38l-2.13 0 0 -2.82c0,-0.44 0.1,-0.78 0.29,-1 0.21,-0.23 0.5,-0.35 0.88,-0.35 0.35,0 0.61,0.12 0.79,0.36 0.17,0.22 0.26,0.55 0.26,0.99l0 2.83 -0.09 0 0 -0.01z"/>
   <path class="fil0" d="M73.27 27.93c-0.56,-1.99 -0.52,-3.62 0.13,-4.9 0.66,-1.27 1.91,-2.18 3.77,-2.71l0.18 -0.06 -0.06 0.18c-0.5,1.46 -1.06,2.81 -1.71,4.06 -0.64,1.26 -1.35,2.41 -2.13,3.46l-0.12 0.17 -0.06 -0.2 0 0z"/>
   <path class="fil0" d="M92.9 5.35c-2.11,9.21 -5.44,17.7 -10.01,25.49 -4.57,7.79 -10.35,14.87 -17.37,21.24l-0.17 0.15 0 -8.2 0.03 -0.03c4.54,-4.84 8.38,-10.11 11.56,-15.83 3.18,-5.71 5.69,-11.86 7.52,-18.45l0 -0.04c2.83,-1.51 5.66,-3.03 8.49,-4.54l-0.05 0.21 0 0z"/>
   <path class="fil0" d="M45.56 9.74c1.82,6.59 4.33,12.74 7.51,18.46 3.18,5.71 7.03,10.98 11.56,15.82l0.03 0.03 0 8.2 -0.17 -0.16c-7.02,-6.36 -12.8,-13.44 -17.37,-21.23 -4.56,-7.79 -7.9,-16.29 -10.01,-25.49l-0.06 -0.22 8.5 4.55 0.01 0.04z"/>
   <path class="fil0" d="M37.18 4.24c9.28,-2.76 18.88,-4.24 28.46,-4.24 9.18,0 18.35,1.35 27.2,4.22l0.22 0.07c-2.83,1.52 -5.66,3.04 -8.5,4.56l-0.04 -0.01c-6.46,-1.54 -12.89,-2.37 -19.37,-2.39 -6.47,-0.04 -13,0.74 -19.66,2.4l-0.04 0.01c-2.84,-1.51 -5.67,-3.04 -8.51,-4.55l0.24 -0.07 0 0z"/>
  </g>
 </g>
</svg>
