<?xml version="1.0" encoding="UTF-8"?>
<!DOCTYPE svg PUBLIC "-//W3C//DTD SVG 1.1//EN" "http://www.w3.org/Graphics/SVG/1.1/DTD/svg11.dtd">
<!-- Creator: CorelDRAW 2018 (64-Bit) -->
<svg xmlns="http://www.w3.org/2000/svg" xml:space="preserve" width="173px" height="111px" version="1.1" style="shape-rendering:geometricPrecision; text-rendering:geometricPrecision; image-rendering:optimizeQuality; fill-rule:evenodd; clip-rule:evenodd"
viewBox="0 0 173 111"
 xmlns:xlink="http://www.w3.org/1999/xlink">
 <defs>
  <style type="text/css">
   <![CDATA[
    .fil0 {fill:#2B2A29}
   ]]>
  </style>
 </defs>
 <g id="Слой_x0020_1">
  <metadata id="CorelCorpID_0Corel-Layer"/>
  <g id="_2245643144448">
   <path class="fil0" d="M172.88 89.28l-6.49 0 0 21.07c-2.04,0.21 -4.09,0.43 -6.13,0.62 -2.14,0.12 -3.98,-0.07 -5.51,-0.57 -1.55,-0.49 -2.79,-1.3 -3.72,-2.42 -1.67,-1.98 -2.5,-5.15 -2.5,-9.51l0 -21.76c5.95,-2.94 11.91,-5.88 17.86,-8.82l0 8.78 6.61 0 0 12.61 -0.12 0zm-125.52 18.41l10.57 0 8.26 -28.46 -11.57 0 3.23 14.6c-0.55,1.81 -1.1,3.62 -1.65,5.42l-4.45 -20.02 -12.96 0 8.57 28.46zm-2.2 2.45l-10.14 -33.42 34.83 0c-3.24,11.16 -6.47,22.34 -9.76,33.48l-14.91 0 -0.02 -0.06zm-11.31 -16.65c0,2.69 -0.37,5.1 -1.09,7.21 -0.73,2.12 -1.82,3.95 -3.27,5.48 -1.5,1.6 -3.29,2.79 -5.38,3.59 -2.09,0.8 -4.48,1.2 -7.16,1.2 -2.68,0 -5.06,-0.4 -7.14,-1.18 -2.09,-0.79 -3.87,-1.97 -5.36,-3.55 -1.48,-1.57 -2.6,-3.42 -3.34,-5.55 -0.74,-2.13 -1.11,-4.53 -1.11,-7.2 0,-2.72 0.37,-5.15 1.1,-7.29 0.74,-2.14 1.85,-4 3.32,-5.56 1.48,-1.56 3.26,-2.74 5.35,-3.52 2.09,-0.78 4.48,-1.17 7.18,-1.17 2.68,0 5.06,0.39 7.14,1.18 2.08,0.78 3.86,1.97 5.34,3.54 1.47,1.58 2.58,3.43 3.31,5.57 0.74,2.13 1.11,4.55 1.11,7.25zm-3.07 0.42l0 -0.6c0,-2.27 -0.28,-4.3 -0.86,-6.1 -0.58,-1.78 -1.44,-3.33 -2.59,-4.64 -1.23,-1.37 -2.71,-2.39 -4.44,-3.08 -1.73,-0.68 -3.71,-1.02 -5.94,-1.02 -2.27,0 -4.27,0.34 -6,1.02 -1.72,0.68 -3.18,1.69 -4.37,3.05 -1.19,1.36 -2.09,2.95 -2.68,4.77 -0.6,1.83 -0.9,3.89 -0.9,6.18 0,2.25 0.3,4.26 0.88,6.04 0.59,1.78 1.47,3.32 2.64,4.63 1.23,1.37 2.71,2.39 4.45,3.08 1.74,0.68 3.73,1.03 5.98,1.03 1.92,0 3.65,-0.26 5.2,-0.78 1.55,-0.51 2.91,-1.29 4.1,-2.32 1.2,-1.03 2.15,-2.27 2.88,-3.73 0.71,-1.43 1.19,-3.06 1.46,-4.89l-12.26 0 0 3.36c0,0.57 -0.11,1 -0.34,1.29 -0.23,0.3 -0.58,0.45 -1.04,0.45 -1.04,0 -1.56,-0.58 -1.56,-1.74l0 -6 15.39 0zm-12.56 -4.51l-2.83 0 0 -3.78c0,-0.59 0.13,-1.04 0.39,-1.34 0.27,-0.31 0.66,-0.46 1.17,-0.46 0.46,0 0.81,0.15 1.05,0.47 0.22,0.3 0.33,0.74 0.33,1.33l0 3.78 -0.11 0zm151.78 -2.58l0 -7.75 -6.5 0 0 -6.78 -12.02 5.95 0 20.35c0,3.46 0.53,5.88 1.59,7.26 0.63,0.8 1.52,1.4 2.67,1.81 1.16,0.4 2.58,0.61 4.27,0.61l1.86 0 1.63 -0.29 0 -21.16 6.5 0zm-27.84 23.3l-31.99 0 0 -33.45 18.52 0c2.43,0 4.51,0.21 6.24,0.65 1.73,0.43 3.1,1.09 4.12,1.96l0 0c1.08,0.96 1.89,2.27 2.42,3.94 0.54,1.67 0.81,3.69 0.81,6.06l0 20.84 -0.12 0zm-2.95 -2.51l0 -18.57c0,-1.85 -0.18,-3.42 -0.55,-4.7 -0.36,-1.28 -0.91,-2.28 -1.64,-2.99 -0.72,-0.72 -1.73,-1.26 -3.01,-1.62 -1.29,-0.36 -2.87,-0.54 -4.72,-0.54l-16.17 0 0 28.42 11.54 0 0 -20.79 0.6 0c0.79,0 1.38,0.15 1.79,0.44 0.41,0.31 0.62,0.76 0.62,1.36l0 18.99 11.54 0zm-33.97 -14.12c0,2.69 -0.36,5.1 -1.09,7.21 -0.73,2.12 -1.82,3.95 -3.27,5.48 -1.5,1.6 -3.29,2.79 -5.38,3.59 -2.09,0.8 -4.48,1.2 -7.16,1.2 -2.68,0 -5.06,-0.4 -7.14,-1.18 -2.09,-0.79 -3.87,-1.97 -5.36,-3.55 -1.48,-1.57 -2.6,-3.42 -3.34,-5.55 -0.74,-2.13 -1.11,-4.53 -1.11,-7.2 0,-2.72 0.37,-5.15 1.1,-7.29 0.74,-2.14 1.85,-4 3.32,-5.56 1.48,-1.56 3.26,-2.74 5.35,-3.52 2.09,-0.78 4.48,-1.17 7.18,-1.17 2.68,0 5.06,0.39 7.14,1.18 2.08,0.78 3.86,1.97 5.34,3.54 1.47,1.58 2.58,3.43 3.32,5.57 0.73,2.13 1.1,4.55 1.1,7.25zm-3.07 0.42l0 -0.6c0,-2.27 -0.28,-4.3 -0.86,-6.1 -0.58,-1.78 -1.44,-3.33 -2.59,-4.64 -1.23,-1.37 -2.71,-2.39 -4.44,-3.08 -1.72,-0.68 -3.71,-1.02 -5.94,-1.02 -2.27,0 -4.27,0.34 -6,1.02 -1.72,0.68 -3.18,1.69 -4.37,3.05 -1.19,1.36 -2.08,2.95 -2.68,4.77 -0.6,1.83 -0.9,3.89 -0.9,6.18 0,4.49 1.18,8.05 3.52,10.67 1.23,1.37 2.71,2.39 4.45,3.08 1.74,0.68 3.73,1.03 5.98,1.03 3.82,0 6.93,-1.04 9.31,-3.1 1.19,-1.03 2.14,-2.27 2.87,-3.73 0.71,-1.43 1.19,-3.06 1.46,-4.89l-12.25 0 0 3.36c0,1.16 -0.47,1.74 -1.39,1.74 -1.04,0 -1.56,-0.58 -1.56,-1.74l0 -6 15.39 0zm-12.56 -4.51l-2.83 0 0 -3.78c0,-0.59 0.13,-1.04 0.39,-1.34 0.27,-0.31 0.66,-0.46 1.17,-0.46 0.46,0 0.81,0.15 1.05,0.47 0.22,0.3 0.34,0.74 0.34,1.33l0 3.78 -0.12 0z"/>
   <path class="fil0" d="M97.5 37.36c-0.74,-2.67 -0.69,-4.85 0.18,-6.56 0.87,-1.7 2.54,-2.91 5.01,-3.63l0.25 -0.07 -0.08 0.24c-0.67,1.95 -1.42,3.76 -2.28,5.43 -0.85,1.68 -1.8,3.22 -2.84,4.63l-0.16 0.22 -0.08 -0.26z"/>
   <path class="fil0" d="M123.63 7.16c-2.81,12.31 -7.25,23.67 -13.32,34.09 -6.08,10.42 -13.78,19.88 -23.12,28.4l-0.22 0.21 0 -10.97 0.04 -0.04c6.03,-6.47 11.15,-13.52 15.38,-21.17 4.23,-7.64 7.57,-15.86 10,-24.68l0.01 -0.05c3.76,-2.03 7.53,-4.06 11.3,-6.08l-0.07 0.29z"/>
   <path class="fil0" d="M60.63 13.03c2.42,8.81 5.76,17.03 9.99,24.68 4.23,7.64 9.36,14.69 15.39,21.17l0.03 0.04 0 10.96 -0.22 -0.21c-9.34,-8.51 -17.04,-17.98 -23.11,-28.4 -6.08,-10.41 -10.52,-21.78 -13.33,-34.09l-0.07 -0.29 11.3 6.08 0.02 0.06z"/>
   <path class="fil0" d="M49.47 5.67c12.36,-3.69 25.13,-5.67 37.88,-5.67 12.22,0 24.42,1.81 36.19,5.65l0.3 0.09c-3.77,2.03 -7.54,4.06 -11.31,6.09l-0.05 -0.01c-8.6,-2.06 -17.16,-3.16 -25.78,-3.2 -8.61,-0.04 -17.3,1 -26.17,3.22l-0.05 0.01c-3.78,-2.02 -7.55,-4.06 -11.32,-6.09l0.31 -0.09z"/>
  </g>
 </g>
</svg>
