<?xml version="1.0" encoding="UTF-8"?>
<!DOCTYPE svg PUBLIC "-//W3C//DTD SVG 1.1//EN" "http://www.w3.org/Graphics/SVG/1.1/DTD/svg11.dtd">
<!-- Creator: CorelDRAW 2018 (64-Bit) -->
<svg xmlns="http://www.w3.org/2000/svg" xml:space="preserve" width="68px" height="68px" version="1.1" style="shape-rendering:geometricPrecision; text-rendering:geometricPrecision; image-rendering:optimizeQuality; fill-rule:evenodd; clip-rule:evenodd"
viewBox="0 0 68 68"
 xmlns:xlink="http://www.w3.org/1999/xlink"
 enable-background="new 0 0 500 500">
 <defs>
  <style type="text/css">
   <![CDATA[
    .fil0 {fill:#FEFEFE}
   ]]>
  </style>
 </defs>
 <g id="Слой_x0020_1">
  <metadata id="CorelCorpID_0Corel-Layer"/>
  <path class="fil0" d="M59.77 49c-2.98,-3.88 -6.57,-6.4 -11.73,-7.83l-4.83 16.91c0,1.56 -1.28,2.84 -2.83,2.84 -1.56,0 -2.84,-1.28 -2.84,-2.84l0 -13.45c0,-1.96 -1.59,-3.55 -3.54,-3.55 -1.95,0 -3.54,1.59 -3.54,3.55l0 13.45c0,1.56 -1.28,2.84 -2.83,2.84 -1.56,0 -2.84,-1.28 -2.84,-2.84l-4.83 -16.91c-5.16,1.44 -8.75,3.95 -11.73,7.83 -1.18,1.53 -1.81,4.61 -1.86,6.25 0.02,0.43 0,0.92 0,1.42l0 2.83 0 2.83c0,3.14 2.54,5.67 5.67,5.67l43.92 0c3.13,0 5.67,-2.53 5.67,-5.67l0 -2.83 0 -2.83c0,-0.5 -0.02,-0.99 0,-1.42 -0.05,-1.64 -0.68,-4.72 -1.86,-6.25zm-40.65 -34.01c0,8.27 5.16,20.43 14.88,20.43 9.55,0 14.88,-12.16 14.88,-20.43 0,-8.28 -6.66,-14.99 -14.88,-14.99 -8.22,0 -14.88,6.71 -14.88,14.99z"/>
 </g>
</svg>
