<?xml version="1.0" encoding="UTF-8"?>
<!DOCTYPE svg PUBLIC "-//W3C//DTD SVG 1.1//EN" "http://www.w3.org/Graphics/SVG/1.1/DTD/svg11.dtd">
<!-- Creator: CorelDRAW 2018 (64-Bit) -->
<svg xmlns="http://www.w3.org/2000/svg" xml:space="preserve" width="68px" height="68px" version="1.1" style="shape-rendering:geometricPrecision; text-rendering:geometricPrecision; image-rendering:optimizeQuality; fill-rule:evenodd; clip-rule:evenodd"
viewBox="0 0 68 68"
 xmlns:xlink="http://www.w3.org/1999/xlink"
 enable-background="new 0 0 500 500">
 <defs>
  <style type="text/css">
   <![CDATA[
    .fil0 {fill:#FEFEFE}
   ]]>
  </style>
 </defs>
 <g id="Слой_x0020_1">
  <metadata id="CorelCorpID_0Corel-Layer"/>
  <path class="fil0" d="M30.38 34c0,-2 1.62,-3.62 3.62,-3.62 2,0 3.62,1.62 3.62,3.62 0,2 -1.62,3.62 -3.62,3.62 -2,0 -3.62,-1.62 -3.62,-3.62zm3.62 -9.4c-5.19,0 -9.4,4.21 -9.4,9.4 0,5.19 4.21,9.4 9.4,9.4 5.19,0 9.4,-4.21 9.4,-9.4 0,-5.19 -4.21,-9.4 -9.4,-9.4zm-24.36 16.32c0.54,1.95 1.33,3.8 2.31,5.52l-4.34 4.75c-1.24,1.24 -1.24,3.25 0,4.5l4.7 4.7c1.25,1.24 3.26,1.24 4.5,0l4.75 -4.34c1.72,0.98 3.57,1.77 5.52,2.31l0.41 6.46c0,1.76 1.42,3.18 3.18,3.18l6.66 0c1.76,0 3.18,-1.42 3.18,-3.18l0.4 -6.46c1.96,-0.54 3.81,-1.33 5.53,-2.31l4.75 4.34c1.24,1.24 3.25,1.24 4.5,0l4.7 -4.7c1.24,-1.25 1.24,-3.26 0,-4.5l-4.34 -4.75c0.98,-1.72 1.76,-3.57 2.31,-5.52l6.46 -0.41c1.76,0 3.18,-1.42 3.18,-3.18l0 -6.66c0,-1.76 -1.42,-3.18 -3.18,-3.18l-6.46 -0.41c-0.55,-1.95 -1.33,-3.8 -2.31,-5.52l4.34 -4.75c1.24,-1.24 1.24,-3.25 0,-4.5l-4.7 -4.7c-1.25,-1.24 -3.26,-1.24 -4.5,0l-4.75 4.34c-1.72,-0.98 -3.57,-1.77 -5.53,-2.31l-0.4 -6.46c0,-1.76 -1.42,-3.18 -3.18,-3.18l-6.66 0c-1.76,0 -3.18,1.42 -3.18,3.18l-0.41 6.46c-1.95,0.54 -3.8,1.33 -5.52,2.31l-4.75 -4.34c-1.24,-1.24 -3.25,-1.24 -4.5,0l-4.7 4.7c-1.24,1.25 -1.24,3.26 0,4.5l4.34 4.75c-0.98,1.72 -1.77,3.57 -2.31,5.52l-6.46 0.41c-1.76,0 -3.18,1.42 -3.18,3.18l0 6.66c0,1.76 1.42,3.18 3.18,3.18l6.46 0.41zm24.36 -22.11c8.39,0 15.19,6.8 15.19,15.19 0,8.39 -6.8,15.19 -15.19,15.19 -8.39,0 -15.19,-6.8 -15.19,-15.19 0,-8.39 6.8,-15.19 15.19,-15.19z"/>
 </g>
</svg>
