<?xml version="1.0" encoding="UTF-8"?>
<!DOCTYPE svg PUBLIC "-//W3C//DTD SVG 1.1//EN" "http://www.w3.org/Graphics/SVG/1.1/DTD/svg11.dtd">
<!-- Creator: CorelDRAW 2018 (64-Bit) -->
<svg xmlns="http://www.w3.org/2000/svg" xml:space="preserve" width="68px" height="68px" version="1.1" style="shape-rendering:geometricPrecision; text-rendering:geometricPrecision; image-rendering:optimizeQuality; fill-rule:evenodd; clip-rule:evenodd"
viewBox="0 0 68 68"
 xmlns:xlink="http://www.w3.org/1999/xlink"
 enable-background="new 0 0 500 500">
 <defs>
  <style type="text/css">
   <![CDATA[
    .fil0 {fill:#FEFEFE}
   ]]>
  </style>
 </defs>
 <g id="Слой_x0020_1">
  <metadata id="CorelCorpID_0Corel-Layer"/>
  <path class="fil0" d="M0 34c0,18.78 15.22,34 34,34 18.78,0 34,-15.22 34,-34 0,-18.78 -15.22,-34 -34,-34 -18.78,0 -34,15.22 -34,34zm7.23 0c0,-1.74 0.16,-3.43 0.48,-5.06l6.95 0c-0.13,1.43 -0.19,2.88 -0.19,4.34 0,1.46 0.06,2.91 0.19,4.34l-7.19 0c-0.16,-1.19 -0.24,-2.39 -0.24,-3.62zm3 -12.3c2.11,-4.09 5.25,-7.57 9.08,-10.08 -1.52,3.2 -2.7,6.57 -3.53,10.08l-5.55 0zm19.93 -14.19l0.22 -0.03 0 14.22 -7.12 0c1.44,-5.18 3.79,-9.98 6.9,-14.19zm7.46 -0.03l0.2 0.03c3.11,4.21 5.48,9.01 6.92,14.19l-7.12 0 0 -14.22 0 0zm11.05 4.14c3.83,2.52 6.99,5.99 9.1,10.08l-5.57 0c-0.81,-3.51 -2.01,-6.88 -3.53,-10.08zm11.62 17.32c0.32,1.63 0.48,3.32 0.48,5.06 0,1.23 -0.09,2.43 -0.25,3.62l-7.16 0c0.11,-1.43 0.17,-2.88 0.17,-4.34 0,-1.46 -0.06,-2.91 -0.17,-4.34l6.93 0zm-1.81 15.91c-2.27,5.11 -6.09,9.38 -10.87,12.2 2.03,-3.81 3.58,-7.9 4.59,-12.2l6.28 0zm-38.09 12.2c-4.78,-2.82 -8.6,-7.09 -10.87,-12.2l6.28 0c1.01,4.3 2.56,8.41 4.59,12.2zm1.53 -28.11l8.46 0 0 8.68 -8.46 0c-0.15,-1.43 -0.22,-2.88 -0.22,-4.34 0,-1.46 0.07,-2.91 0.22,-4.34zm15.7 0l8.46 0c0.15,1.43 0.22,2.88 0.22,4.34 0,1.46 -0.07,2.91 -0.22,4.34l-8.46 0 0 -8.68zm-14.36 15.91l7.12 0 0 14.47c-3.21,-4.28 -5.65,-9.17 -7.12,-14.47zm14.36 0l7.12 0c-1.47,5.3 -3.91,10.19 -7.12,14.47l0 -14.47z"/>
 </g>
</svg>
