<?xml version="1.0" encoding="UTF-8"?>
<!DOCTYPE svg PUBLIC "-//W3C//DTD SVG 1.1//EN" "http://www.w3.org/Graphics/SVG/1.1/DTD/svg11.dtd">
<!-- Creator: CorelDRAW 2018 (64-Bit) -->
<svg xmlns="http://www.w3.org/2000/svg" xml:space="preserve" width="35px" height="35px" version="1.1" style="shape-rendering:geometricPrecision; text-rendering:geometricPrecision; image-rendering:optimizeQuality; fill-rule:evenodd; clip-rule:evenodd"
viewBox="0 0 35 35"
 xmlns:xlink="http://www.w3.org/1999/xlink"
 enable-background="new 0 0 500 500">
 <defs>
  <style type="text/css">
   <![CDATA[
    .fil0 {fill:#333333}
   ]]>
  </style>
 </defs>
 <g id="Слой_x0020_1">
  <metadata id="CorelCorpID_0Corel-Layer"/>
  <path class="fil0" d="M17.5 0c6.23,0 12.48,1.12 14.75,3.34 1.89,1.84 2.51,5.11 2.73,7.17 0,0 0.02,0.2 0.02,0.29 0,0.81 -0.65,1.46 -1.46,1.46 -0.09,0 -3.6,-0.29 -5.71,-0.47 -0.05,0 -0.11,-0.01 -0.16,-0.02 -0.79,-0.02 -1.42,-0.66 -1.42,-1.46l-0.01 -2.88c0,-0.89 -0.71,-1.6 -1.61,-1.6l-14.26 0c-0.9,0 -1.61,0.71 -1.61,1.6l-0.01 2.88c0,0.8 -0.63,1.44 -1.42,1.46 -0.05,0.01 -0.11,0.02 -0.16,0.02 -2.11,0.18 -5.62,0.47 -5.71,0.47 -0.81,0 -1.46,-0.65 -1.46,-1.46 0,-0.09 0.02,-0.29 0.02,-0.29 0.22,-2.06 0.84,-5.33 2.73,-7.17 2.27,-2.22 8.52,-3.34 14.75,-3.34zm0 18.96c1.61,0 2.92,1.3 2.92,2.92 0,1.6 -1.31,2.91 -2.92,2.91 -1.61,0 -2.92,-1.31 -2.92,-2.91 0,-1.61 1.31,-2.92 2.92,-2.92zm2.19 -6.56l0 -1.83c0,-1 0.81,-1.82 1.82,-1.82 1.01,0 1.82,0.82 1.82,1.82l0 1.83 9.84 10.5c0.68,0.67 1.11,1.59 1.11,2.62l0 2.91c0,1.62 -1.31,2.92 -2.93,2.92l-0.72 0 0 1.83c0,1 -0.82,1.82 -1.82,1.82 -1.01,0 -1.84,-0.82 -1.84,-1.82l0 -1.83 -18.94 0 0 1.83c0,1 -0.83,1.82 -1.83,1.82 -1.01,0 -1.82,-0.82 -1.82,-1.82l0 -1.83 -0.73 0c-1.62,0 -2.93,-1.3 -2.93,-2.92l0 -2.91c0,-1.03 0.44,-1.95 1.11,-2.62l9.84 -10.5 0 -1.83c0,-1 0.81,-1.82 1.82,-1.82 1.01,0 1.83,0.82 1.83,1.82l0 1.83 4.37 0 0 0zm-2.19 3.64c-3.22,0 -5.83,2.62 -5.83,5.84 0,3.21 2.61,5.83 5.83,5.83 3.22,0 5.83,-2.62 5.83,-5.83 0,-3.23 -2.61,-5.84 -5.83,-5.84z"/>
 </g>
 <g id="Слой_x0020_1_0">
  <metadata id="CorelCorpID_1Corel-Layer"/>
 </g>
</svg>
