<?xml version="1.0" encoding="UTF-8"?>
<!DOCTYPE svg PUBLIC "-//W3C//DTD SVG 1.1//EN" "http://www.w3.org/Graphics/SVG/1.1/DTD/svg11.dtd">
<!-- Creator: CorelDRAW 2018 (64-Bit) -->
<svg xmlns="http://www.w3.org/2000/svg" xml:space="preserve" width="30px" height="30px" version="1.1" style="shape-rendering:geometricPrecision; text-rendering:geometricPrecision; image-rendering:optimizeQuality; fill-rule:evenodd; clip-rule:evenodd"
viewBox="0 0 30 30"
 xmlns:xlink="http://www.w3.org/1999/xlink"
 enable-background="new 0 0 500 500">
 <defs>
  <style type="text/css">
   <![CDATA[
    .fil0 {fill:#333333}
   ]]>
  </style>
 </defs>
 <g id="Слой_x0020_1">
  <metadata id="CorelCorpID_0Corel-Layer"/>
  <path class="fil0" d="M15 0c5.34,0 10.7,0.96 12.64,2.86 1.62,1.58 2.15,4.38 2.34,6.15 0,0 0.02,0.17 0.02,0.25 0,0.69 -0.56,1.25 -1.25,1.25 -0.08,0 -3.09,-0.25 -4.9,-0.4 -0.04,0 -0.09,-0.01 -0.13,-0.02 -0.68,-0.02 -1.22,-0.57 -1.22,-1.25l-0.01 -2.47c0,-0.76 -0.61,-1.37 -1.38,-1.37l-12.22 0c-0.77,0 -1.38,0.61 -1.38,1.37l-0.01 2.47c0,0.68 -0.54,1.23 -1.22,1.25 -0.04,0.01 -0.09,0.02 -0.13,0.02 -1.81,0.15 -4.82,0.4 -4.9,0.4 -0.69,0 -1.25,-0.56 -1.25,-1.25 0,-0.08 0.02,-0.25 0.02,-0.25 0.19,-1.77 0.72,-4.57 2.34,-6.15 1.94,-1.9 7.3,-2.86 12.64,-2.86zm0 16.25c1.38,0 2.5,1.12 2.5,2.5 0,1.38 -1.12,2.5 -2.5,2.5 -1.38,0 -2.5,-1.12 -2.5,-2.5 0,-1.38 1.12,-2.5 2.5,-2.5zm1.88 -5.62l0 -1.57c0,-0.86 0.69,-1.56 1.56,-1.56 0.86,0 1.56,0.7 1.56,1.56l0 1.57 8.43 9c0.58,0.57 0.95,1.36 0.95,2.24l0 2.5c0,1.39 -1.12,2.5 -2.51,2.5l-0.62 0 0 1.57c0,0.86 -0.7,1.56 -1.56,1.56 -0.86,0 -1.57,-0.7 -1.57,-1.56l0 -1.57 -16.24 0 0 1.57c0,0.86 -0.71,1.56 -1.57,1.56 -0.86,0 -1.56,-0.7 -1.56,-1.56l0 -1.57 -0.62 0c-1.39,0 -2.51,-1.11 -2.51,-2.5l0 -2.5c0,-0.88 0.37,-1.67 0.95,-2.24l8.43 -9 0 -1.57c0,-0.86 0.7,-1.56 1.56,-1.56 0.87,0 1.57,0.7 1.57,1.56l0 1.57 3.75 0zm-1.88 3.12c-2.76,0 -5,2.24 -5,5 0,2.76 2.24,5 5,5 2.76,0 5,-2.24 5,-5 0,-2.76 -2.24,-5 -5,-5z"/>
 </g>
</svg>
